<svg xmlns="http://www.w3.org/2000/svg" version="1.1" xmlns:xlink="http://www.w3.org/1999/xlink" xmlns:svgjs="http://svgjs.dev/svgjs" width="2000" height="2250" viewBox="0 0 2000 2250"><g transform="matrix(1,0,0,1,0,0)"><svg viewBox="0 0 320 360" data-background-color="#1a202c" preserveAspectRatio="xMidYMid meet" height="2250" width="2000" xmlns="http://www.w3.org/2000/svg" xmlns:xlink="http://www.w3.org/1999/xlink"><g id="tight-bounds" transform="matrix(1,0,0,1,0,0)"><svg viewBox="0 0 320 360" height="360" width="320"><g><svg></svg></g><g><svg viewBox="0 0 320 360" height="360" width="320"><g><path d="M39.474 120.804l2.852-5.236c22.696-41.686 66.871-69.977 117.674-69.972 50.817 0 95.006 28.305 117.697 70.005l2.852 5.241 8.173-31.337 31.03 7.961-2.654-4.792c-30.586-55.251-89.468-92.674-157.098-92.674-67.631 0-126.508 37.423-157.103 92.674l-2.654 4.787 31.063-7.956zM160 4.721c63.839 0 119.567 34.288 150.073 85.389l-24.731-6.341-6.417 24.608c-24.217-40.411-68.381-67.503-118.925-67.503-50.525 0-94.68 27.078-118.897 67.465l-6.412-24.575-24.764 6.341c30.506-51.101 86.238-85.384 150.073-85.384zM280.526 239.191l-2.852 5.236c-22.696 41.691-66.871 69.977-117.674 69.977-50.817 0-95.006-28.301-117.697-70.005l-2.852-5.236-8.173 31.332-31.035-7.961 2.654 4.792c30.591 55.246 89.468 92.674 157.103 92.674 67.631 0 126.513-37.427 157.103-92.674l2.654-4.787-31.063 7.956zM160 355.279c-63.839 0-119.567-34.288-150.073-85.389l24.727 6.346 6.421-24.609c24.217 40.402 68.381 67.499 118.925 67.499 50.529 0 94.68-27.078 118.901-67.47l6.408 24.575 24.764-6.341c-30.506 51.096-86.233 85.388-150.073 85.388z" fill="#000000" fill-rule="nonzero" stroke="none" stroke-width="1" stroke-linecap="butt" stroke-linejoin="miter" stroke-miterlimit="10" stroke-dasharray="" stroke-dashoffset="0" font-family="none" font-weight="none" font-size="none" text-anchor="none" style="mix-blend-mode: normal" data-fill-palette-color="tertiary"></path></g><g transform="matrix(1,0,0,1,64,119.6272040302267)"><svg viewBox="0 0 192 120.7455919395466" height="120.7455919395466" width="192"><g><svg viewBox="0 0 192 120.7455919395466" height="120.7455919395466" width="192"><g><svg viewBox="0 0 192 120.7455919395466" height="120.7455919395466" width="192"><g><svg viewBox="0 0 192 120.7455919395466" height="120.7455919395466" width="192"><g id="textblocktransform"><svg viewBox="0 0 192 120.7455919395466" height="120.7455919395466" width="192" id="textblock"><g><svg viewBox="0 0 192 120.7455919395466" height="120.7455919395466" width="192"><g transform="matrix(1,0,0,1,0,0)"><svg width="192" viewBox="2.81 -36.06 58.15 36.57" height="120.7455919395466" data-palette-color="#e5e7eb"><path d="M14.79 0.51L14.79 0.51Q11.55 0.51 8.54-0.44 5.54-1.39 2.81-3.37L2.81-3.37 2.81-10.96 6.54-10.96 7.35-5.37Q8.94-4.39 10.79-3.86 12.65-3.32 14.79-3.32L14.79-3.32Q17.24-3.32 18.93-4.06 20.63-4.81 21.53-6.13 22.44-7.45 22.44-9.2L22.44-9.2Q22.44-10.84 21.66-12.08 20.87-13.33 19.08-14.27 17.29-15.21 14.18-15.92L14.18-15.92Q10.52-16.77 8-18.2 5.47-19.63 4.16-21.67 2.86-23.71 2.86-26.34L2.86-26.34Q2.86-29.13 4.33-31.32 5.81-33.52 8.45-34.79 11.08-36.06 14.6-36.06L14.6-36.06Q18.33-36.06 21.2-34.92 24.07-33.79 25.93-32.18L25.93-32.18 25.93-25.07 22.19-25.07 21.39-30.15Q20.29-31.03 18.65-31.62 17.02-32.2 14.6-32.2L14.6-32.2Q12.55-32.2 10.99-31.48 9.42-30.76 8.54-29.47 7.67-28.17 7.67-26.42L7.67-26.42Q7.67-24.88 8.46-23.73 9.25-22.58 11.05-21.72 12.84-20.85 15.84-20.09L15.84-20.09Q21.46-18.7 24.35-15.98 27.25-13.26 27.25-9.25L27.25-9.25Q27.25-6.4 25.71-4.19 24.17-1.98 21.37-0.73 18.58 0.51 14.79 0.51ZM45.58 0L31.42 0 31.42-3.08 35.4-3.76 35.4-31.76 31.42-32.45 31.42-35.55 35.4-35.55 45.33-35.55Q50.05-35.55 53.55-33.3 57.05-31.05 59.01-27.12 60.96-23.19 60.96-18.14L60.96-18.14 60.96-17.38Q60.96-12.45 59.08-8.51 57.2-4.57 53.75-2.28 50.29 0 45.58 0L45.58 0ZM40.21-31.76L40.21-3.76 45.33-3.76Q48.7-3.76 51.12-5.6 53.54-7.45 54.84-10.53 56.15-13.62 56.15-17.38L56.15-17.38 56.15-18.19Q56.15-22.07 54.84-25.13 53.54-28.2 51.12-29.98 48.7-31.76 45.33-31.76L45.33-31.76 40.21-31.76Z" opacity="1" transform="matrix(1,0,0,1,0,0)" fill="#000000" class="wordmark-text-0" data-fill-palette-color="primary" id="text-0"></path></svg></g></svg></g></svg></g></svg></g></svg></g></svg></g></svg></g></svg></g><defs></defs></svg><rect width="320" height="360" fill="none" stroke="none" visibility="hidden"></rect></g></svg></g></svg>